<?xml version="1.0" standalone="no"?>
<!DOCTYPE svg PUBLIC "-//W3C//DTD SVG 20010904//EN"
 "http://www.w3.org/TR/2001/REC-SVG-20010904/DTD/svg10.dtd">
<svg version="1.0" xmlns="http://www.w3.org/2000/svg"
 width="4961.000000pt" height="7016.000000pt" viewBox="0 0 4961.000000 7016.000000"
 preserveAspectRatio="xMidYMid meet">

<g transform="translate(0.000000,7016.000000) scale(0.100000,-0.100000)"
fill="#000000" stroke="none">
<path d="M44555 36139 c-6713 -129 -12659 -1111 -18012 -2973 -2536 -882
-4951 -1967 -7238 -3251 -2460 -1382 -4818 -3030 -7030 -4914 -1570 -1338
-3165 -2893 -4616 -4501 -1971 -2186 -3843 -4630 -5619 -7340 -223 -340 -707
-1101 -717 -1128 -4 -10 1076 -12 5397 -10 l5402 3 87 195 c379 847 1018 2045
1589 2980 1337 2188 2895 4167 4772 6064 2792 2821 6121 5280 10010 7394 702
381 1810 946 2465 1257 365 173 716 335 723 335 4 0 1839 -4102 4077 -9115
l4070 -9114 3774 -1 c3589 0 3773 1 3768 18 -2 9 -2084 4676 -4626 10370
-2541 5694 -4621 10356 -4621 10360 0 7 256 90 845 274 1415 442 2876 848
4360 1212 1833 449 4013 894 5903 1203 l292 48 0 281 0 282 -122 6 c-1203 61
-3537 92 -4933 65z"/>
</g>
</svg>
